<svg version="1.1" id="Layer_1" xmlns="http://www.w3.org/2000/svg" xmlns:xlink="http://www.w3.org/1999/xlink" x="0px" y="0px"
	 width="100%" viewBox="0 0 128 130" enable-background="new 0 0 128 130" xml:space="preserve">
<path fill="#000101" opacity="1.000000" stroke="none" 
	d="
M1.000000,43.000000 
	C1.000000,28.666670 1.000000,14.833340 1.000000,1.000007 
	C43.666653,1.000005 86.333305,1.000005 128.999969,1.000003 
	C128.999969,44.333309 128.999969,87.666618 128.999985,130.999939 
	C86.333366,130.999969 43.666733,130.999969 1.000051,130.999985 
	C1.000000,101.833336 1.000000,72.666664 1.000000,43.000000 
M118.619438,16.370731 
	C113.062561,9.441440 106.065407,5.295614 96.059593,5.029566 
	C75.030006,5.081301 54.000427,5.133036 32.148167,5.069499 
	C21.011381,6.265577 12.918909,11.793461 7.601692,22.515757 
	C6.729318,26.696932 5.159001,30.868843 5.103346,35.060860 
	C4.838527,55.007339 4.948321,74.959457 5.032102,94.909111 
	C5.043062,97.518806 5.673367,100.125900 6.050065,103.375198 
	C6.362799,103.928497 6.675532,104.481789 6.886660,105.515068 
	C6.886660,105.515068 7.154669,105.926018 7.235011,106.635132 
	C9.153337,109.432793 11.071661,112.230446 13.117773,115.708878 
	C18.623241,121.156349 24.902929,124.916382 33.892056,124.966919 
	C54.923962,124.919807 75.955864,124.872696 97.815659,124.941406 
	C112.843170,123.536346 124.718201,111.257072 124.981400,96.066666 
	C124.933098,75.045425 124.884789,54.024181 124.992119,32.371986 
	C122.923271,27.249990 120.854424,22.127995 118.619438,16.370731 
z"/>
<path fill="#02AEB4" opacity="1.000000" stroke="none" 
	d="
M7.154669,105.926018 
	C7.154669,105.926018 6.886660,105.515068 7.083856,105.047989 
	C7.235589,103.750336 7.190126,102.919762 7.132369,101.702232 
	C7.085279,100.541801 7.050483,99.768318 7.262905,98.769302 
	C7.683760,94.302040 7.926197,90.061813 8.018814,85.818314 
	C8.370942,69.684723 8.751959,53.550793 8.903251,37.414936 
	C8.923222,35.284966 7.678768,33.143139 7.041630,30.610977 
	C7.859972,27.499138 8.656602,24.783127 9.564981,22.108372 
	C9.676732,22.149624 9.912998,22.180250 10.179808,22.356239 
	C14.871485,23.532875 15.159739,23.100899 15.038420,15.843502 
	C16.892660,15.221541 18.521305,14.941333 20.039864,14.369024 
	C21.171419,13.942568 23.060329,13.150935 23.069513,12.500164 
	C23.137526,7.681617 26.493607,8.112862 29.664137,7.796773 
	C30.825253,7.681015 31.898357,6.682484 33.479156,6.070049 
	C54.968998,6.031845 75.991302,6.010247 97.298447,6.115425 
	C98.377190,6.484008 99.171089,6.725817 100.248062,6.991867 
	C100.720512,7.019161 100.909889,7.022213 101.447037,7.110329 
	C106.545265,10.131420 111.295723,13.067446 115.907089,16.279329 
	C115.996620,17.622736 115.859238,19.225559 116.512428,19.672188 
	C121.250969,22.912251 122.405685,28.047386 123.978584,33.459763 
	C123.976677,54.954113 123.973633,75.979210 123.791107,97.325348 
	C122.446541,102.254715 121.488937,106.963348 116.928551,109.717941 
	C116.416840,110.027023 116.113991,110.746490 115.810844,111.326141 
	C113.144104,116.425255 107.020554,117.611954 103.665184,122.008064 
	C103.120338,122.721909 101.120651,122.206482 99.865257,122.534325 
	C98.854843,122.798195 97.952988,123.477730 96.533813,123.973892 
	C75.047752,123.949974 54.030846,123.924988 32.799820,123.605759 
	C32.033684,122.970924 31.502800,122.379051 30.926220,122.330566 
	C27.200871,122.017296 23.116423,122.446541 22.784037,116.885895 
	C22.754614,116.393661 20.923176,115.931686 19.883589,115.594849 
	C18.182173,115.043556 16.443684,114.606689 14.779625,113.694977 
	C16.409428,106.496574 11.552876,106.451118 7.154669,105.926018 
M74.048935,70.021004 
	C74.048935,70.021004 74.035782,70.041809 73.493256,70.316185 
	C73.628777,71.573402 73.764290,72.830627 73.947578,75.011650 
	C74.026848,78.971138 74.231010,82.933105 74.152451,86.889458 
	C74.062660,91.411255 75.671532,95.102112 79.591408,97.259827 
	C83.790352,99.571152 86.168976,95.990242 89.550507,93.829018 
	C93.960251,92.480614 98.369987,91.132210 103.194717,89.406776 
	C103.546265,89.282692 103.897812,89.158600 104.808762,89.110466 
	C105.185966,89.114677 105.563164,89.118889 106.277771,89.724220 
	C107.854935,90.812004 109.432091,91.899788 111.147522,93.323196 
	C111.332634,93.527809 111.512680,93.737816 111.713242,93.925980 
	C111.728035,93.939865 111.890572,93.796295 111.984421,93.725914 
	C111.651825,93.487442 111.319229,93.248970 110.911865,92.328339 
	C110.678787,89.857262 107.110107,87.805580 110.361137,84.304878 
	C110.536880,82.554474 110.712624,80.804070 110.860306,78.446541 
	C109.608315,78.004601 108.356323,77.562660 106.584602,76.834518 
	C107.248146,74.943085 107.587967,72.839783 108.653625,71.211517 
	C110.129662,68.956245 112.519028,67.157295 110.818634,64.055550 
	C108.686661,65.851311 106.245468,67.144371 104.991554,69.171761 
	C103.655838,71.331406 103.737671,74.322083 102.640663,76.690590 
	C101.865318,78.364624 100.157455,79.606758 98.538368,80.364487 
	C99.293831,76.413704 100.115593,72.474167 100.787514,68.509224 
	C101.579262,63.837143 103.760193,61.386612 108.984543,61.883121 
	C110.576935,62.034454 112.365494,60.121624 114.062294,59.058659 
	C114.062294,59.058659 114.157799,59.059750 114.735817,58.732731 
	C117.221161,53.484512 113.088036,54.029198 110.357483,54.124786 
	C105.867668,54.281979 102.529015,53.911957 102.515579,48.051388 
	C102.512276,46.605629 100.105606,44.460812 98.423660,43.987152 
	C97.411240,43.702049 95.332794,45.791683 94.329330,47.229931 
	C92.965340,49.184902 92.170944,51.537289 91.132271,53.719238 
	C90.496010,53.808445 89.859749,53.897655 89.223480,53.986862 
	C88.667114,51.988708 87.540764,49.948208 87.685326,48.002125 
	C87.913452,44.931301 89.035347,41.932758 89.705437,38.887447 
	C90.625511,34.706112 91.802582,30.543217 92.238991,26.307455 
	C92.512787,23.650034 91.875427,20.645531 87.693153,22.036041 
	C78.899628,24.959686 74.950111,30.524986 75.257782,39.760426 
	C75.257782,39.760426 75.196754,39.812096 74.512878,40.057255 
	C70.220680,43.369400 67.544380,47.469818 68.111252,53.079220 
	C68.111252,53.079220 68.190247,53.073353 67.528152,53.262524 
	C65.683151,55.622772 63.838150,57.983025 61.360470,61.152637 
	C61.119980,59.214252 60.700203,58.239372 60.953278,57.492462 
	C63.125664,51.080894 59.756493,45.569958 58.039505,39.842571 
	C57.695965,38.696625 55.743252,37.197315 54.660618,37.294083 
	C52.785069,37.461735 50.921169,38.618252 49.291901,39.715630 
	C49.059460,39.872192 50.167099,42.018360 50.780067,43.899071 
	C50.747097,44.562836 50.714130,45.226604 50.034809,46.210617 
	C49.431644,47.139664 48.578278,47.991695 48.264854,49.009926 
	C45.736206,57.224861 43.320164,65.474380 40.843857,73.705551 
	C40.161533,75.973564 39.391930,78.215332 38.715889,80.616013 
	C38.715889,80.616013 38.591061,80.710106 37.930313,80.620476 
	C37.297070,80.789513 36.663826,80.958542 35.501945,81.536011 
	C32.477268,82.761589 29.481390,84.864777 26.419790,84.965240 
	C23.374304,85.065193 20.262794,83.153145 16.493347,81.976463 
	C15.468327,82.249901 13.932491,82.192047 13.504149,82.852478 
	C11.311495,86.233223 13.531590,97.086891 17.227974,100.456825 
	C17.227974,97.669472 17.227974,95.252090 18.147821,92.851273 
	C19.387363,92.746246 20.626904,92.641220 22.237190,92.538437 
	C22.485533,92.607338 22.685875,92.745720 23.240751,93.587387 
	C28.388674,96.477211 32.667599,93.619339 36.934269,91.360016 
	C39.569004,89.964859 42.116848,88.222878 41.390762,84.456764 
	C41.390762,84.456764 41.428555,84.412437 42.132809,84.476875 
	C43.430000,82.998466 44.727192,81.520058 46.659966,80.144135 
	C48.404301,79.310707 50.148636,78.477280 51.892975,77.643860 
	C51.199753,76.412880 50.506527,75.181900 49.871746,73.176643 
	C50.878437,70.375656 49.608635,66.062035 54.758709,66.316879 
	C54.758709,66.316879 54.663719,66.676872 54.150467,67.294891 
	C54.321941,69.586716 54.493416,71.878548 55.039341,74.332710 
	C55.039341,74.332710 55.446918,74.354050 55.634151,74.891632 
	C55.719902,75.261139 55.805653,75.630638 55.628357,76.502335 
	C55.700146,79.510719 57.342995,80.179466 59.368740,78.356026 
	C61.257149,76.656204 62.546257,74.290596 64.711006,71.934509 
	C67.140785,69.794594 70.254959,68.010811 68.978455,63.158211 
	C69.038597,62.161224 69.098740,61.164242 69.018028,60.054081 
	C69.018028,60.054081 69.170509,60.147972 69.573250,60.308281 
	C69.573250,60.308281 69.983566,60.447639 70.327522,60.840996 
	C71.894638,62.252083 73.461761,63.663166 75.011086,65.804832 
	C74.958679,66.533669 74.906265,67.262497 74.562889,68.453896 
	C74.386429,68.969887 74.209969,69.485870 74.048935,70.021004 
M65.496307,115.002441 
	C60.525463,115.002441 55.554619,115.002441 50.583778,115.002441 
	C50.607445,115.443108 50.631115,115.883766 50.654785,116.324432 
	C60.208084,116.324432 69.761383,116.324432 79.314682,116.324432 
	C79.313019,115.883766 79.311348,115.443108 79.309685,115.002441 
	C75.036728,115.002441 70.763771,115.002441 65.496307,115.002441 
M58.607861,14.997637 
	C65.541718,14.997637 72.475578,14.997637 79.409439,14.997637 
	C79.389542,14.498669 79.369644,13.999701 79.349747,13.500732 
	C69.779358,13.500732 60.208969,13.500732 50.638584,13.500732 
	C50.615879,13.999688 50.593178,14.498643 50.570477,14.997599 
	C52.931915,14.997599 55.293354,14.997599 58.607861,14.997637 
M105.866142,42.224133 
	C106.342316,44.910294 106.818481,47.596455 107.458351,51.206097 
	C108.573822,50.329918 110.869453,49.431087 111.063194,48.201160 
	C111.595894,44.819496 111.247101,41.298977 111.247101,37.551178 
	C109.715591,38.831264 107.999901,40.265293 105.866142,42.224133 
M100.152359,34.840324 
	C98.048424,35.684906 95.944489,36.529488 93.220169,37.623108 
	C99.074257,40.445484 102.018211,39.293705 105.521233,32.218822 
	C103.906517,32.926613 102.291801,33.634403 100.152359,34.840324 
M66.828644,85.641823 
	C67.952103,83.120377 69.075562,80.598930 70.675453,77.008194 
	C68.524750,77.781464 66.523140,77.904495 66.139587,78.756195 
	C65.172310,80.904114 64.924187,83.378502 64.495834,85.741631 
	C64.489372,85.777260 65.869743,86.064278 66.828644,85.641823 
M39.807945,62.329285 
	C43.717030,60.228703 41.897850,57.690926 40.839439,55.211212 
	C40.368786,55.182491 39.898129,55.153770 39.427475,55.125053 
	C39.427475,57.366936 39.427475,59.608822 39.807945,62.329285 
M89.790009,44.149994 
	C89.883995,44.388023 89.977989,44.626057 90.071976,44.864086 
	C90.254814,44.670315 90.437660,44.476540 90.620499,44.282768 
	C90.384972,44.149952 90.149445,44.017132 89.790009,44.149994 
M89.505096,49.521606 
	C89.505096,49.521606 89.502892,49.497215 89.505096,49.521606 
z"/>
<path fill="#3299A0" opacity="1.000000" stroke="none" 
	d="
M97.002968,123.972839 
	C97.952988,123.477730 98.854843,122.798195 99.865257,122.534325 
	C101.120651,122.206482 103.120338,122.721909 103.665184,122.008064 
	C107.020554,117.611954 113.144104,116.425255 115.810844,111.326141 
	C116.113991,110.746490 116.416840,110.027023 116.928551,109.717941 
	C121.488937,106.963348 122.446541,102.254715 124.009201,97.323303 
	C124.406761,97.000214 124.842499,96.994530 124.842499,96.994530 
	C124.718201,111.257072 112.843170,123.536346 97.404968,124.670303 
	C96.994278,124.399193 97.002968,123.972839 97.002968,123.972839 
M110.888573,117.489746 
	C110.888573,117.489746 111.087830,117.562019 111.087830,117.562019 
	C111.087830,117.562019 110.961784,117.401794 110.888573,117.489746 
z"/>
<path fill="#279DA4" opacity="1.000000" stroke="none" 
	d="
M9.912998,22.180250 
	C9.912998,22.180250 9.676732,22.149624 9.223896,22.086655 
	C8.545921,22.006845 8.320784,21.990004 8.095646,21.973162 
	C12.918909,11.793461 21.011381,6.265577 32.571224,5.352530 
	C32.994282,5.635561 33.011612,6.086656 33.011612,6.086656 
	C31.898357,6.682484 30.825253,7.681015 29.664137,7.796773 
	C26.493607,8.112862 23.137526,7.681617 23.069513,12.500164 
	C23.060329,13.150935 21.171419,13.942568 20.039864,14.369024 
	C18.521305,14.941333 16.892660,15.221541 14.805346,16.042505 
	C12.837276,18.365324 11.375137,20.272787 9.912998,22.180250 
z"/>
<path fill="#399FA7" opacity="1.000000" stroke="none" 
	d="
M7.848669,22.244459 
	C8.320784,21.990004 8.545921,22.006845 9.112144,22.045403 
	C8.656602,24.783127 7.859972,27.499138 6.848750,30.976368 
	C6.416327,33.198589 6.011501,34.659260 6.008947,36.120640 
	C5.975118,55.482819 5.974159,74.845184 6.049983,94.207176 
	C6.056237,95.804298 6.679245,97.399010 7.015687,98.994843 
	C7.050483,99.768318 7.085279,100.541801 6.933245,101.790878 
	C6.492280,102.405334 6.249077,102.561234 6.016808,102.734200 
	C5.673367,100.125900 5.043062,97.518806 5.032102,94.909111 
	C4.948321,74.959457 4.838527,55.007339 5.103346,35.060860 
	C5.159001,30.868843 6.729318,26.696932 7.848669,22.244459 
z"/>
<path fill="#249FA6" opacity="1.000000" stroke="none" 
	d="
M14.720833,114.121552 
	C16.443684,114.606689 18.182173,115.043556 19.883589,115.594849 
	C20.923176,115.931686 22.754614,116.393661 22.784037,116.885895 
	C23.116423,122.446541 27.200871,122.017296 30.926220,122.330566 
	C31.502800,122.379051 32.033684,122.970924 32.786880,123.833931 
	C32.988056,124.356354 32.956139,124.810936 32.956139,124.810936 
	C24.902929,124.916382 18.623241,121.156349 13.272675,115.252548 
	C13.858661,114.571335 14.289746,114.346443 14.720833,114.121552 
z"/>
<path fill="#38A4AD" opacity="1.000000" stroke="none" 
	d="
M33.424095,124.888931 
	C32.956139,124.810936 32.988056,124.356354 33.000996,124.128174 
	C54.030846,123.924988 75.047752,123.949974 96.533813,123.973900 
	C97.002968,123.972839 96.994278,124.399193 96.991028,124.612389 
	C75.955864,124.872696 54.923962,124.919807 33.424095,124.888931 
z"/>
<path fill="#38A4AC" opacity="1.000000" stroke="none" 
	d="
M33.479156,6.070049 
	C33.011612,6.086656 32.994282,5.635561 32.982563,5.410166 
	C54.000427,5.133036 75.030006,5.081301 96.528770,5.305998 
	C96.997948,5.582431 97.013603,5.988650 97.013603,5.988650 
	C75.991302,6.010247 54.968998,6.031845 33.479156,6.070049 
z"/>
<path fill="#37A0A8" opacity="1.000000" stroke="none" 
	d="
M124.911949,96.530594 
	C124.842499,96.994530 124.406761,97.000214 124.188675,97.002258 
	C123.973633,75.979210 123.976677,54.954113 124.193420,33.463284 
	C124.407112,32.997551 124.836487,33.002941 124.836487,33.002941 
	C124.884789,54.024181 124.933098,75.045425 124.911949,96.530594 
z"/>
<path fill="#39989F" opacity="1.000000" stroke="none" 
	d="
M97.298447,6.115425 
	C97.013603,5.988650 96.997948,5.582431 96.991409,5.379276 
	C106.065407,5.295614 113.062561,9.441440 118.419357,16.614096 
	C117.494911,16.572798 116.770546,16.288136 116.046173,16.003473 
	C111.295723,13.067446 106.545265,10.131420 101.310883,7.042347 
	C100.530716,6.795833 100.243393,6.821940 99.964989,6.967625 
	C99.171089,6.725817 98.377190,6.484008 97.298447,6.115425 
z"/>
<path fill="#339CA3" opacity="1.000000" stroke="none" 
	d="
M115.907089,16.279329 
	C116.770546,16.288136 117.494911,16.572798 118.502426,16.931728 
	C120.854424,22.127995 122.923271,27.249990 124.914307,32.687462 
	C124.836487,33.002941 124.407112,32.997551 124.192276,32.994026 
	C122.405685,28.047386 121.250969,22.912251 116.512428,19.672188 
	C115.859238,19.225559 115.996620,17.622736 115.907089,16.279329 
z"/>
<path fill="#25A2AB" opacity="1.000000" stroke="none" 
	d="
M14.779625,113.694977 
	C14.289746,114.346443 13.858661,114.571335 13.208780,114.912170 
	C11.071661,112.230446 9.153337,109.432793 7.194840,106.280579 
	C11.552876,106.451118 16.409428,106.496574 14.779625,113.694977 
z"/>
<path fill="#08ADB4" opacity="1.000000" stroke="none" 
	d="
M6.033436,103.054703 
	C6.249077,102.561234 6.492280,102.405334 6.945540,102.177841 
	C7.190126,102.919762 7.235589,103.750336 7.134658,104.807999 
	C6.675532,104.481789 6.362799,103.928497 6.033436,103.054703 
z"/>
<path fill="#010809" opacity="1.000000" stroke="none" 
	d="
M104.249359,89.034515 
	C103.897812,89.158600 103.546265,89.282692 102.593590,89.643066 
	C98.724113,88.780930 95.455765,87.682503 92.187424,86.584076 
	C92.245308,86.068398 92.303200,85.552719 92.361092,85.037048 
	C91.252502,87.049683 90.143913,89.062317 88.743729,91.246475 
	C87.769363,92.144814 87.110466,92.895935 86.399864,93.594467 
	C82.199455,97.723534 77.863396,96.646904 77.207809,90.252419 
	C76.321182,81.604210 76.560104,72.723129 77.405075,64.048019 
	C78.245140,55.423248 80.433121,46.929760 82.030022,38.378700 
	C81.507988,38.172951 80.985954,37.967201 80.463928,37.761456 
	C78.635002,41.541679 76.806076,45.321903 74.768646,49.256962 
	C74.417488,49.909531 74.274841,50.407269 73.865494,51.084877 
	C73.221451,52.024769 72.844101,52.784786 72.579620,53.587013 
	C72.692490,53.629215 72.455872,53.583607 72.208168,53.799580 
	C71.030479,56.059692 70.100494,58.103832 69.170509,60.147972 
	C69.170509,60.147972 69.018028,60.054081 68.825607,60.317619 
	C67.751099,62.404350 66.869011,64.227547 65.732819,66.273613 
	C64.055244,69.059822 62.960728,71.908730 61.080051,74.075165 
	C60.019146,75.297272 57.663704,75.395599 55.891403,76.000145 
	C55.805653,75.630638 55.719902,75.261139 55.639191,74.216179 
	C55.412418,71.715874 55.180607,69.891014 54.941956,67.827637 
	C54.934399,67.258347 54.843933,66.954269 54.663719,66.676872 
	C54.663719,66.676872 54.758709,66.316879 54.778893,66.029541 
	C54.799076,65.742210 54.667267,65.533012 54.779480,65.227417 
	C54.844086,64.282280 54.796482,63.642742 54.781090,62.680885 
	C54.766525,61.930477 54.719742,61.502384 54.741978,60.701752 
	C54.650360,58.788540 54.489723,57.247868 54.329090,55.707199 
	C53.888607,55.659050 53.448128,55.610901 53.007645,55.562752 
	C52.447212,57.682991 51.886776,59.803234 51.226349,62.298473 
	C47.893753,69.919792 44.661152,77.166115 41.428555,84.412437 
	C41.428555,84.412437 41.390762,84.456764 41.143082,84.688507 
	C36.096180,90.339973 30.595518,94.182999 22.838217,92.953598 
	C22.685875,92.745720 22.485533,92.607338 21.841408,92.242691 
	C19.953661,89.671097 18.461697,87.395248 17.031654,84.883919 
	C17.093575,84.648438 17.102468,84.161537 17.451435,84.178146 
	C26.154261,89.570694 30.485432,89.283234 37.001228,82.790428 
	C37.704788,81.998825 38.147923,81.354462 38.591057,80.710106 
	C38.591061,80.710106 38.715889,80.616013 38.940010,80.332947 
	C46.669876,69.899635 50.492825,58.507713 50.681160,45.890369 
	C50.714130,45.226604 50.747097,44.562836 50.805183,43.174850 
	C51.801796,41.302040 52.773293,40.153446 53.744793,39.004852 
	C54.826557,40.094864 56.674728,41.067619 56.862419,42.294418 
	C57.880096,48.946220 58.470875,55.662720 59.247246,62.352467 
	C59.452000,64.116760 59.793385,65.865196 60.072029,67.620918 
	C60.510727,67.649559 60.949429,67.678200 61.388126,67.706841 
	C63.655502,62.829014 65.922874,57.951183 68.190247,53.073353 
	C68.190247,53.073353 68.111252,53.079220 68.383728,52.897938 
	C70.836388,48.415134 73.016571,44.113617 75.196754,39.812096 
	C75.196754,39.812096 75.257782,39.760426 75.523132,39.497318 
	C79.074738,34.678535 82.269409,30.051092 85.731651,25.633341 
	C86.355057,24.837887 88.080154,24.905834 89.296608,24.575161 
	C89.561966,25.778061 90.264679,27.081535 90.015282,28.166061 
	C89.049789,32.364693 87.688744,36.470654 86.649208,40.654411 
	C85.438324,45.527775 84.409889,50.446472 83.309586,55.313210 
	C89.426994,56.771423 94.052467,56.848881 94.970604,49.824444 
	C95.030403,49.366905 95.351135,48.854881 95.704460,48.542171 
	C96.518784,47.821468 97.507996,46.609501 98.276978,46.712402 
	C99.112976,46.824268 99.999512,48.092976 100.460457,49.051373 
	C100.943413,50.055527 101.179840,51.303375 101.116417,52.421593 
	C100.930641,55.697369 102.670799,56.382225 105.465767,56.113003 
	C107.446602,55.922203 109.542030,55.579578 111.407021,56.036484 
	C112.504944,56.305466 113.252602,58.004112 114.157799,59.059750 
	C114.157799,59.059750 114.062294,59.058659 113.663269,59.207397 
	C110.301254,59.523186 107.325363,59.576920 104.381523,59.912125 
	C103.175087,60.049496 101.196907,60.569027 101.001022,61.298847 
	C99.299973,67.636673 97.669411,74.021164 96.637001,80.490578 
	C96.388351,82.048683 98.250259,85.246880 99.483200,85.433472 
	C101.344688,85.715195 103.617996,84.198738 105.488876,83.069710 
	C106.308861,82.574867 106.567772,81.150284 107.116852,80.125496 
	C107.152252,80.103119 107.121178,80.025337 107.444183,80.100052 
	C107.798172,81.766212 107.829147,83.357666 107.654785,85.108200 
	C107.317802,85.585091 107.186157,85.902885 106.799911,86.344261 
	C106.235634,86.935333 105.925941,87.402840 105.681801,87.850891 
	C105.747353,87.831436 105.706963,87.700790 105.469299,87.796913 
	C104.904213,88.273529 104.576790,88.654022 104.249359,89.034515 
M91.886673,69.384895 
	C92.080391,59.890999 92.080200,59.887135 83.553329,60.305965 
	C83.255165,60.320610 82.968643,60.572136 82.114853,60.984833 
	C81.317551,70.719360 77.694817,80.813866 83.386398,91.186646 
	C90.834648,85.408020 93.433006,78.674454 91.886673,69.384895 
z"/>
<path fill="#2B949A" opacity="1.000000" stroke="none" 
	d="
M114.446808,58.896240 
	C113.252602,58.004112 112.504944,56.305466 111.407021,56.036484 
	C109.542030,55.579578 107.446602,55.922203 105.465767,56.113003 
	C102.670799,56.382225 100.930641,55.697369 101.116417,52.421593 
	C101.179840,51.303375 100.943413,50.055527 100.460457,49.051373 
	C99.999512,48.092976 99.112976,46.824268 98.276978,46.712402 
	C97.507996,46.609501 96.518784,47.821468 95.704460,48.542171 
	C95.351135,48.854881 95.030403,49.366905 94.970604,49.824444 
	C94.052467,56.848881 89.426994,56.771423 83.309586,55.313210 
	C84.409889,50.446472 85.438324,45.527775 86.649208,40.654411 
	C87.688744,36.470654 89.049789,32.364693 90.015282,28.166061 
	C90.264679,27.081535 89.561966,25.778061 89.296608,24.575161 
	C88.080154,24.905834 86.355057,24.837887 85.731651,25.633341 
	C82.269409,30.051092 79.074738,34.678535 75.501755,39.463531 
	C74.950111,30.524986 78.899628,24.959686 87.693153,22.036041 
	C91.875427,20.645531 92.512787,23.650034 92.238991,26.307455 
	C91.802582,30.543217 90.625511,34.706112 89.705437,38.887447 
	C89.035347,41.932758 87.913452,44.931301 87.685326,48.002125 
	C87.540764,49.948208 88.667114,51.988708 89.223480,53.986862 
	C89.859749,53.897655 90.496010,53.808445 91.132271,53.719238 
	C92.170944,51.537289 92.965340,49.184902 94.329330,47.229931 
	C95.332794,45.791683 97.411240,43.702049 98.423660,43.987152 
	C100.105606,44.460812 102.512276,46.605629 102.515579,48.051388 
	C102.529015,53.911957 105.867668,54.281979 110.357483,54.124786 
	C113.088036,54.029198 117.221161,53.484512 114.446808,58.896240 
z"/>
<path fill="#08ADB4" opacity="1.000000" stroke="none" 
	d="
M7.262905,98.769302 
	C6.679245,97.399010 6.056237,95.804298 6.049983,94.207176 
	C5.974159,74.845184 5.975118,55.482819 6.008947,36.120640 
	C6.011501,34.659260 6.416327,33.198589 6.827037,31.372196 
	C7.678768,33.143139 8.923222,35.284966 8.903251,37.414936 
	C8.751959,53.550793 8.370942,69.684723 8.018814,85.818314 
	C7.926197,90.061813 7.683760,94.302040 7.262905,98.769302 
z"/>
<path fill="#2D8D94" opacity="1.000000" stroke="none" 
	d="
M74.977158,49.102127 
	C76.806076,45.321903 78.635002,41.541679 80.463928,37.761456 
	C80.985954,37.967201 81.507988,38.172951 82.030022,38.378700 
	C80.433121,46.929760 78.245140,55.423248 77.405075,64.048019 
	C76.560104,72.723129 76.321182,81.604210 77.207809,90.252419 
	C77.863396,96.646904 82.199455,97.723534 86.399864,93.594467 
	C87.110466,92.895935 87.769363,92.144814 88.737274,91.575195 
	C88.957733,92.380302 88.893051,93.028198 88.828369,93.676102 
	C86.168976,95.990242 83.790352,99.571152 79.591408,97.259827 
	C75.671532,95.102112 74.062660,91.411255 74.152451,86.889458 
	C74.231010,82.933105 74.026848,78.971138 73.973984,74.145134 
	C74.012184,72.199684 74.023987,71.120743 74.035782,70.041809 
	C74.035782,70.041809 74.048935,70.021004 74.210922,69.792320 
	C74.533226,69.039536 74.693535,68.515434 74.853851,67.991333 
	C74.906265,67.262497 74.958679,66.533669 75.209412,65.118210 
	C76.195625,59.772415 77.042328,55.120804 77.644173,50.437721 
	C77.686012,50.112148 75.908577,49.552776 74.977158,49.102127 
z"/>
<path fill="#2B949A" opacity="1.000000" stroke="none" 
	d="
M67.859200,53.167938 
	C65.922874,57.951183 63.655502,62.829014 61.388126,67.706841 
	C60.949429,67.678200 60.510727,67.649559 60.072029,67.620918 
	C59.793385,65.865196 59.452000,64.116760 59.247246,62.352467 
	C58.470875,55.662720 57.880096,48.946220 56.862419,42.294418 
	C56.674728,41.067619 54.826557,40.094864 53.744793,39.004852 
	C52.773293,40.153446 51.801796,41.302040 50.742416,42.847176 
	C50.167099,42.018360 49.059460,39.872192 49.291901,39.715630 
	C50.921169,38.618252 52.785069,37.461735 54.660618,37.294083 
	C55.743252,37.197315 57.695965,38.696625 58.039505,39.842571 
	C59.756493,45.569958 63.125664,51.080894 60.953278,57.492462 
	C60.700203,58.239372 61.119980,59.214252 61.360470,61.152637 
	C63.838150,57.983025 65.683151,55.622772 67.859200,53.167938 
z"/>
<path fill="#2B949A" opacity="1.000000" stroke="none" 
	d="
M107.081451,80.147873 
	C106.567772,81.150284 106.308861,82.574867 105.488876,83.069710 
	C103.617996,84.198738 101.344688,85.715195 99.483200,85.433472 
	C98.250259,85.246880 96.388351,82.048683 96.637001,80.490578 
	C97.669411,74.021164 99.299973,67.636673 101.001022,61.298847 
	C101.196907,60.569027 103.175087,60.049496 104.381523,59.912125 
	C107.325363,59.576920 110.301254,59.523186 113.664230,59.255142 
	C112.365494,60.121624 110.576935,62.034454 108.984543,61.883121 
	C103.760193,61.386612 101.579262,63.837143 100.787514,68.509224 
	C100.115593,72.474167 99.293831,76.413704 98.761444,80.988831 
	C100.286888,81.829109 101.666306,82.416351 102.871964,82.166183 
	C104.351044,81.859283 105.684845,80.852234 107.081451,80.147873 
z"/>
<path fill="#2B949A" opacity="1.000000" stroke="none" 
	d="
M50.357986,46.050491 
	C50.492825,58.507713 46.669876,69.899635 38.913254,80.259506 
	C39.391930,78.215332 40.161533,75.973564 40.843857,73.705551 
	C43.320164,65.474380 45.736206,57.224861 48.264854,49.009926 
	C48.578278,47.991695 49.431644,47.139664 50.357986,46.050491 
z"/>
<path fill="#17ABB6" opacity="1.000000" stroke="none" 
	d="
M107.116852,80.125496 
	C105.684845,80.852234 104.351044,81.859283 102.871964,82.166183 
	C101.666306,82.416351 100.286888,81.829109 98.925201,81.327438 
	C100.157455,79.606758 101.865318,78.364624 102.640663,76.690590 
	C103.737671,74.322083 103.655838,71.331406 104.991554,69.171761 
	C106.245468,67.144371 108.686661,65.851311 110.818634,64.055550 
	C112.519028,67.157295 110.129662,68.956245 108.653625,71.211517 
	C107.587967,72.839783 107.248146,74.943085 106.819038,77.267410 
	C107.028427,78.088501 107.003372,78.476692 106.987259,79.158295 
	C107.037865,79.642921 107.079521,79.834129 107.121178,80.025337 
	C107.121178,80.025337 107.152252,80.103119 107.116852,80.125496 
z"/>
<path fill="#0FADB2" opacity="1.000000" stroke="none" 
	d="
M17.102468,84.161537 
	C17.102468,84.161537 17.093575,84.648438 16.858898,85.177132 
	C16.825472,88.082123 17.026722,90.458412 17.227974,92.834709 
	C17.227974,95.252090 17.227974,97.669472 17.227974,100.456825 
	C13.531590,97.086891 11.311495,86.233223 13.504149,82.852478 
	C13.932491,82.192047 15.468327,82.249901 16.796291,82.387390 
	C17.100315,83.252716 17.101393,83.707130 17.102468,84.161537 
z"/>
<path fill="#13ACB3" opacity="1.000000" stroke="none" 
	d="
M74.768646,49.256966 
	C75.908577,49.552776 77.686012,50.112148 77.644173,50.437721 
	C77.042328,55.120804 76.195625,59.772415 75.218307,64.752914 
	C73.461761,63.663166 71.894638,62.252083 70.382141,60.335678 
	C71.109802,57.748108 71.782837,55.665859 72.455872,53.583607 
	C72.455872,53.583607 72.692490,53.629215 72.854065,53.542160 
	C73.387825,52.605072 73.760002,51.755035 74.132187,50.904999 
	C74.274841,50.407269 74.417488,49.909531 74.768646,49.256966 
z"/>
<path fill="#0FADB0" opacity="1.000000" stroke="none" 
	d="
M65.993561,115.002441 
	C70.763771,115.002441 75.036728,115.002441 79.309685,115.002441 
	C79.311348,115.443108 79.313019,115.883766 79.314682,116.324432 
	C69.761383,116.324432 60.208084,116.324432 50.654785,116.324432 
	C50.631115,115.883766 50.607445,115.443108 50.583778,115.002441 
	C55.554619,115.002441 60.525463,115.002441 65.993561,115.002441 
z"/>
<path fill="#0FADB0" opacity="1.000000" stroke="none" 
	d="
M58.131325,14.997618 
	C55.293354,14.997599 52.931915,14.997599 50.570477,14.997599 
	C50.593178,14.498643 50.615879,13.999688 50.638584,13.500732 
	C60.208969,13.500732 69.779358,13.500732 79.349747,13.500732 
	C79.369644,13.999701 79.389542,14.498669 79.409439,14.997637 
	C72.475578,14.997637 65.541718,14.997637 58.131325,14.997618 
z"/>
<path fill="#2B969D" opacity="1.000000" stroke="none" 
	d="
M41.780682,84.444656 
	C44.661152,77.166115 47.893753,69.919792 51.489342,62.170975 
	C52.792545,61.470413 53.732754,61.272354 54.672958,61.074295 
	C54.719742,61.502384 54.766525,61.930477 54.680374,62.986515 
	C54.587387,64.253983 54.627327,64.893494 54.667267,65.533012 
	C54.667267,65.533012 54.799076,65.742210 54.734573,65.848740 
	C49.608635,66.062035 50.878437,70.375656 49.596352,73.768715 
	C48.222099,76.254410 47.123238,78.148026 46.024384,80.041649 
	C44.727192,81.520058 43.430000,82.998466 41.780682,84.444656 
z"/>
<path fill="#2B969D" opacity="1.000000" stroke="none" 
	d="
M17.451435,84.178146 
	C17.101393,83.707130 17.100315,83.252716 17.139736,82.460831 
	C20.262794,83.153145 23.374304,85.065193 26.419790,84.965240 
	C29.481390,84.864777 32.477268,82.761589 35.823078,81.567612 
	C36.343075,82.045357 36.541939,82.491516 36.740803,82.937668 
	C30.485432,89.283234 26.154261,89.570694 17.451435,84.178146 
z"/>
<path fill="#10ACB5" opacity="1.000000" stroke="none" 
	d="
M106.075172,41.961731 
	C107.999901,40.265293 109.715591,38.831264 111.247101,37.551178 
	C111.247101,41.298977 111.595894,44.819496 111.063194,48.201160 
	C110.869453,49.431087 108.573822,50.329918 107.458351,51.206097 
	C106.818481,47.596455 106.342316,44.910294 106.075172,41.961731 
z"/>
<path fill="#279CA1" opacity="1.000000" stroke="none" 
	d="
M89.189438,93.752563 
	C88.893051,93.028198 88.957733,92.380302 89.028870,91.403679 
	C90.143913,89.062317 91.252502,87.049683 92.361092,85.037048 
	C92.303200,85.552719 92.245308,86.068398 92.187424,86.584076 
	C95.455765,87.682503 98.724113,88.780930 102.386093,89.831573 
	C98.369987,91.132210 93.960251,92.480614 89.189438,93.752563 
M91.789200,90.353828 
	C92.080009,90.745049 92.370827,91.136261 92.661644,91.527489 
	C92.866074,91.327972 93.070496,91.128456 93.274918,90.928932 
	C92.879463,90.638443 92.484009,90.347954 91.789200,90.353828 
z"/>
<path fill="#12ACB5" opacity="1.000000" stroke="none" 
	d="
M100.414719,34.591255 
	C102.291801,33.634403 103.906517,32.926613 105.521233,32.218822 
	C102.018211,39.293705 99.074257,40.445484 93.220169,37.623108 
	C95.944489,36.529488 98.048424,35.684906 100.414719,34.591255 
z"/>
<path fill="#2B969D" opacity="1.000000" stroke="none" 
	d="
M23.039484,93.270493 
	C30.595518,94.182999 36.096180,90.339973 41.154388,84.715355 
	C42.116848,88.222878 39.569004,89.964859 36.934269,91.360016 
	C32.667599,93.619339 28.388674,96.477211 23.039484,93.270493 
z"/>
<path fill="#0FACB5" opacity="1.000000" stroke="none" 
	d="
M66.715767,85.937897 
	C65.869743,86.064278 64.489372,85.777260 64.495834,85.741631 
	C64.924187,83.378502 65.172310,80.904114 66.139587,78.756195 
	C66.523140,77.904495 68.524750,77.781464 70.675453,77.008194 
	C69.075562,80.598930 67.952103,83.120377 66.715767,85.937897 
z"/>
<path fill="#297A80" opacity="1.000000" stroke="none" 
	d="
M55.759880,76.251236 
	C57.663704,75.395599 60.019146,75.297272 61.080051,74.075165 
	C62.960728,71.908730 64.055244,69.059822 65.735985,66.587410 
	C65.969589,67.096695 65.945923,67.515060 65.768311,68.224426 
	C65.109299,69.749641 64.604233,70.983849 64.099167,72.218056 
	C62.546257,74.290596 61.257149,76.656204 59.368740,78.356026 
	C57.342995,80.179466 55.700146,79.510719 55.759880,76.251236 
z"/>
<path fill="#2B949A" opacity="1.000000" stroke="none" 
	d="
M74.854813,39.934677 
	C73.016571,44.113617 70.836388,48.415134 68.389206,52.937164 
	C67.544380,47.469818 70.220680,43.369400 74.854813,39.934677 
z"/>
<path fill="#0DADB5" opacity="1.000000" stroke="none" 
	d="
M46.342171,80.092896 
	C47.123238,78.148026 48.222099,76.254410 49.567131,74.155853 
	C50.506527,75.181900 51.199753,76.412880 51.892975,77.643860 
	C50.148636,78.477280 48.404301,79.310707 46.342171,80.092896 
z"/>
<path fill="#15ACB5" opacity="1.000000" stroke="none" 
	d="
M39.617710,62.089996 
	C39.427475,59.608822 39.427475,57.366936 39.427475,55.125053 
	C39.898129,55.153770 40.368786,55.182491 40.839439,55.211212 
	C41.897850,57.690926 43.717030,60.228703 39.617710,62.089996 
z"/>
<path fill="#23A7AF" opacity="1.000000" stroke="none" 
	d="
M10.179808,22.356239 
	C11.375137,20.272787 12.837276,18.365324 14.532490,16.258858 
	C15.159739,23.100899 14.871485,23.532875 10.179808,22.356239 
z"/>
<path fill="#279FA6" opacity="1.000000" stroke="none" 
	d="
M107.054504,86.220688 
	C107.186157,85.902885 107.317802,85.585091 108.008781,85.115662 
	C109.039879,84.957321 109.511650,84.950630 109.983414,84.943939 
	C107.110107,87.805580 110.678787,89.857262 110.955620,92.664238 
	C110.999374,93.000137 111.009254,92.987572 111.009254,92.987572 
	C109.432091,91.899788 107.854935,90.812004 106.057877,89.066360 
	C105.794304,88.172600 105.750633,87.936699 105.706963,87.700790 
	C105.706963,87.700790 105.747353,87.831436 105.920990,87.698334 
	C106.414589,87.117050 106.734550,86.668869 107.054504,86.220688 
z"/>
<path fill="#2B969D" opacity="1.000000" stroke="none" 
	d="
M17.687897,92.842987 
	C17.026722,90.458412 16.825472,88.082123 16.796978,85.412613 
	C18.461697,87.395248 19.953661,89.671097 21.656034,92.241577 
	C20.626904,92.641220 19.387363,92.746246 17.687897,92.842987 
z"/>
<path fill="#2B949A" opacity="1.000000" stroke="none" 
	d="
M110.172272,84.624405 
	C109.511650,84.950630 109.039879,84.957321 108.214127,84.956566 
	C107.829147,83.357666 107.798172,81.766212 107.444183,80.100052 
	C107.079521,79.834129 107.037865,79.642921 107.273643,79.133553 
	C108.663513,78.894821 109.775932,78.974243 110.888367,79.053665 
	C110.712624,80.804070 110.536880,82.554474 110.172272,84.624405 
z"/>
<path fill="#21A4A9" opacity="1.000000" stroke="none" 
	d="
M64.405090,72.076279 
	C64.604233,70.983849 65.109299,69.749641 65.983620,67.997284 
	C67.199547,66.285347 68.046219,65.091583 68.892891,63.897816 
	C70.254959,68.010811 67.140785,69.794594 64.405090,72.076279 
z"/>
<path fill="#2D8D94" opacity="1.000000" stroke="none" 
	d="
M72.208168,53.799580 
	C71.782837,55.665859 71.109802,57.748108 70.210167,60.139000 
	C69.983566,60.447639 69.573250,60.308281 69.371880,60.228127 
	C70.100494,58.103832 71.030479,56.059692 72.208168,53.799580 
z"/>
<path fill="#2D8D94" opacity="1.000000" stroke="none" 
	d="
M68.935669,63.528015 
	C68.046219,65.091583 67.199547,66.285347 66.137566,67.706268 
	C65.945923,67.515060 65.969589,67.096695 65.990097,66.364540 
	C66.869011,64.227547 67.751099,62.404350 68.896027,60.374207 
	C69.098740,61.164242 69.038597,62.161224 68.935669,63.528015 
z"/>
<path fill="#2B969D" opacity="1.000000" stroke="none" 
	d="
M54.407093,66.985886 
	C54.843933,66.954269 54.934399,67.258347 54.824982,68.143089 
	C54.698196,70.521507 54.681541,72.345940 54.664886,74.170372 
	C54.493416,71.878548 54.321941,69.586716 54.407093,66.985886 
z"/>
<path fill="#279FA6" opacity="1.000000" stroke="none" 
	d="
M110.874329,78.750107 
	C109.775932,78.974243 108.663513,78.894821 107.264702,78.840149 
	C107.003372,78.476692 107.028427,78.088501 107.078903,77.410507 
	C108.356323,77.562660 109.608315,78.004601 110.874329,78.750107 
z"/>
<path fill="#297A80" opacity="1.000000" stroke="none" 
	d="
M54.852112,74.251541 
	C54.681541,72.345940 54.698196,70.521507 54.831825,68.381622 
	C55.180607,69.891014 55.412418,71.715874 55.545574,73.947388 
	C55.446918,74.354050 55.039341,74.332710 54.852112,74.251541 
z"/>
<path fill="#13ACB3" opacity="1.000000" stroke="none" 
	d="
M73.764519,70.179001 
	C74.023987,71.120743 74.012184,72.199684 73.950089,73.683228 
	C73.764290,72.830627 73.628777,71.573402 73.764519,70.179001 
z"/>
<path fill="#2B949A" opacity="1.000000" stroke="none" 
	d="
M89.851959,44.017151 
	C90.149445,44.017132 90.384972,44.149952 90.620499,44.282768 
	C90.437660,44.476540 90.254814,44.670315 90.071976,44.864086 
	C89.977989,44.626057 89.883995,44.388023 89.851959,44.017151 
z"/>
<path fill="#2B949A" opacity="1.000000" stroke="none" 
	d="
M37.001228,82.790428 
	C36.541939,82.491516 36.343075,82.045357 36.087395,81.363388 
	C36.663826,80.958542 37.297070,80.789513 38.260685,80.665291 
	C38.147923,81.354462 37.704788,81.998825 37.001228,82.790428 
z"/>
<path fill="#279FA6" opacity="1.000000" stroke="none" 
	d="
M110.993004,93.005318 
	C111.319229,93.248970 111.651825,93.487442 111.984421,93.725922 
	C111.890572,93.796295 111.728035,93.939865 111.713242,93.925980 
	C111.512680,93.737816 111.332634,93.527809 111.078384,93.155380 
	C111.009254,92.987572 110.999374,93.000137 110.993004,93.005318 
z"/>
<path fill="#2B949A" opacity="1.000000" stroke="none" 
	d="
M105.469299,87.796913 
	C105.750633,87.936699 105.794304,88.172600 105.889175,88.765800 
	C105.563164,89.118889 105.185966,89.114677 104.529068,89.072495 
	C104.576790,88.654022 104.904213,88.273529 105.469299,87.796913 
z"/>
<path fill="#13ACB3" opacity="1.000000" stroke="none" 
	d="
M74.708374,68.222610 
	C74.693535,68.515434 74.533226,69.039536 74.203209,69.782745 
	C74.209969,69.485870 74.386429,68.969887 74.708374,68.222610 
z"/>
<path fill="#38A4AC" opacity="1.000000" stroke="none" 
	d="
M100.248062,6.991867 
	C100.243393,6.821940 100.530716,6.795833 100.963104,6.957282 
	C100.909889,7.022213 100.720512,7.019161 100.248062,6.991867 
z"/>
<path fill="#2B949A" opacity="1.000000" stroke="none" 
	d="
M89.503998,49.509411 
	C89.502892,49.497215 89.505096,49.521606 89.503998,49.509411 
z"/>
<path fill="#02AEB4" opacity="1.000000" stroke="none" 
	d="
M110.925179,117.445770 
	C110.961784,117.401794 111.087830,117.562019 111.087830,117.562019 
	C111.087830,117.562019 110.888573,117.489746 110.925179,117.445770 
z"/>
<path fill="#2A9197" opacity="1.000000" stroke="none" 
	d="
M91.883148,69.849724 
	C93.433006,78.674454 90.834648,85.408020 83.386398,91.186646 
	C77.694817,80.813866 81.317551,70.719360 82.114853,60.984833 
	C82.968643,60.572136 83.255165,60.320610 83.553329,60.305965 
	C92.080200,59.887135 92.080391,59.890999 91.883148,69.849724 
M87.027748,82.006821 
	C87.027748,82.006821 87.063995,82.047752 87.768471,81.794884 
	C91.942825,78.505928 89.356422,73.933914 90.048698,69.126816 
	C89.064400,66.970047 92.572166,62.461060 86.378937,62.855808 
	C86.378937,62.855808 86.004044,62.882912 85.374718,62.949139 
	C84.881485,63.776340 84.122414,64.550827 83.945900,65.440842 
	C83.457245,67.904732 83.211533,70.416809 82.539139,73.579147 
	C82.393837,75.060303 82.248535,76.541458 82.070213,78.818573 
	C82.083145,79.880325 82.096077,80.942078 82.126053,82.357933 
	C82.446411,82.625969 82.766769,82.894005 83.690147,83.215622 
	C84.093422,83.208328 84.496704,83.201035 85.359344,83.353348 
	C85.922318,82.920143 86.485291,82.486946 87.027748,82.006821 
z"/>
<path fill="#297A80" opacity="1.000000" stroke="none" 
	d="
M54.741982,60.701752 
	C53.732754,61.272354 52.792545,61.470413 51.589340,61.795975 
	C51.886776,59.803234 52.447212,57.682991 53.007645,55.562752 
	C53.448128,55.610901 53.888607,55.659050 54.329090,55.707199 
	C54.489723,57.247868 54.650360,58.788540 54.741982,60.701752 
z"/>
<path fill="#2D8D94" opacity="1.000000" stroke="none" 
	d="
M73.865494,51.084877 
	C73.760002,51.755035 73.387825,52.605072 72.741196,53.499958 
	C72.844101,52.784786 73.221451,52.024769 73.865494,51.084877 
z"/>
<path fill="#2B949A" opacity="1.000000" stroke="none" 
	d="
M106.799911,86.344254 
	C106.734550,86.668869 106.414589,87.117050 105.855438,87.717789 
	C105.925941,87.402840 106.235634,86.935333 106.799911,86.344254 
z"/>
<path fill="#297A80" opacity="1.000000" stroke="none" 
	d="
M54.779480,65.227417 
	C54.627327,64.893494 54.587387,64.253983 54.648163,63.308838 
	C54.796482,63.642742 54.844086,64.282280 54.779480,65.227417 
z"/>
<path fill="#02AEB4" opacity="1.000000" stroke="none" 
	d="
M91.938873,90.205643 
	C92.484009,90.347954 92.879463,90.638443 93.274918,90.928940 
	C93.070496,91.128456 92.866074,91.327972 92.661636,91.527481 
	C92.370827,91.136261 92.080009,90.745049 91.938873,90.205643 
z"/>
<path fill="#05AEB4" opacity="1.000000" stroke="none" 
	d="
M82.869789,72.909836 
	C83.211533,70.416809 83.457245,67.904732 83.945900,65.440842 
	C84.122414,64.550827 84.881485,63.776340 85.760551,63.192825 
	C86.640175,64.029366 87.133965,64.622208 87.627754,65.215057 
	C87.833099,65.047081 88.038452,64.879097 88.243805,64.711121 
	C87.747284,64.085869 87.250763,63.460617 86.754250,62.835365 
	C92.572166,62.461060 89.064400,66.970047 89.662003,69.652161 
	C84.893692,73.455315 87.875526,78.104866 87.063995,82.047752 
	C87.063995,82.047752 87.027748,82.006821 86.744087,82.116516 
	C85.940277,82.548721 85.420128,82.871231 84.899979,83.193741 
	C84.496704,83.201035 84.093422,83.208328 83.234566,82.986488 
	C82.555656,82.506180 82.332329,82.255005 82.109009,82.003830 
	C82.096077,80.942078 82.083145,79.880325 82.355331,78.242722 
	C82.716904,76.081184 82.793350,74.495514 82.869789,72.909836 
z"/>
<path fill="#0FADB3" opacity="1.000000" stroke="none" 
	d="
M87.416229,81.921318 
	C87.875526,78.104866 84.893692,73.455315 89.643280,70.077255 
	C89.356422,73.933914 91.942825,78.505928 87.416229,81.921318 
z"/>
<path fill="#0FADB3" opacity="1.000000" stroke="none" 
	d="
M82.704468,73.244492 
	C82.793350,74.495514 82.716904,76.081184 82.371841,77.844742 
	C82.248535,76.541458 82.393837,75.060303 82.704468,73.244492 
z"/>
<path fill="#0FADB3" opacity="1.000000" stroke="none" 
	d="
M86.566589,62.845589 
	C87.250763,63.460617 87.747284,64.085869 88.243805,64.711121 
	C88.038452,64.879097 87.833099,65.047081 87.627754,65.215057 
	C87.133965,64.622208 86.640175,64.029366 86.075211,63.159714 
	C86.004044,62.882912 86.378937,62.855808 86.566589,62.845589 
z"/>
<path fill="#0FADB3" opacity="1.000000" stroke="none" 
	d="
M85.129662,83.273544 
	C85.420128,82.871231 85.940277,82.548721 86.754349,82.139984 
	C86.485291,82.486946 85.922318,82.920143 85.129662,83.273544 
z"/>
<path fill="#0FADB3" opacity="1.000000" stroke="none" 
	d="
M82.117531,82.180878 
	C82.332329,82.255005 82.555656,82.506180 82.933060,82.959702 
	C82.766769,82.894005 82.446411,82.625969 82.117531,82.180878 
z"/>
</svg>