<svg width="2093" height="2213" viewBox="0 0 2093 2213" fill="none" xmlns="http://www.w3.org/2000/svg">
<path d="M18.8138 2101.29L79.4411 2117.21L169.71 1890.93L80.2246 1867.44L18.8138 2101.29Z" fill="#A0616A"/>
<path d="M0.0678711 2163.97L186.514 2212.93L187.133 2210.57C192.187 2191.33 189.388 2170.86 179.353 2153.68C169.318 2136.5 152.869 2124.01 133.623 2118.95L133.618 2118.95L106.348 2084.17L36.019 2093.32L19.7435 2089.05L0.0678711 2163.97Z" fill="#2F2E41"/>
<path d="M329.628 2146.65L392.313 2146.64L422.135 1904.86L329.614 1904.87L329.628 2146.65Z" fill="#A0616A"/>
<path d="M327.42 2212.04L520.187 2212.03V2209.59C520.186 2189.69 512.28 2170.61 498.209 2156.54C484.139 2142.47 465.055 2134.57 445.157 2134.57H445.152L409.94 2107.85L344.244 2134.57L327.416 2134.57L327.42 2212.04Z" fill="#2F2E41"/>
<path d="M172.841 989.649C157.698 1008.58 165.27 1072.93 165.27 1072.93C165.27 1072.93 138.77 1281.13 150.127 1300.06C161.484 1318.98 142.556 1334.12 131.199 1360.62C119.842 1387.12 108.485 1451.47 108.485 1451.47C44.1284 1504.47 47.914 1746.74 47.914 1746.74L25.2001 1962.51C32.7714 1985.22 138.77 1989.01 153.913 1985.22C169.056 1981.44 316.697 1447.69 316.697 1447.69C316.697 1447.69 309.125 1962.51 309.125 1985.22C309.125 2007.93 411.339 1996.58 434.053 1996.58C456.767 1996.58 600.622 1069.14 600.622 1069.14V1016.15L581.694 989.649C581.694 989.649 187.984 970.722 172.841 989.649Z" fill="#2F2E41"/>
<path d="M339.411 296.912C404.225 296.912 456.767 244.373 456.767 179.563C456.767 114.753 404.225 62.2139 339.411 62.2139C274.597 62.2139 222.055 114.753 222.055 179.563C222.055 244.373 274.597 296.912 339.411 296.912Z" fill="#A0616A"/>
<path d="M181.741 1073.37L181.101 1072.47C146.915 1024.61 198.331 909.609 206.085 892.938C196.877 889.95 188.989 883.862 183.765 875.712C178.541 867.561 176.304 857.852 177.435 848.238L180.778 819.823L184.263 791.952L159.299 766.99L159.229 766.368L144.863 640.672L123.975 557.187C116.105 525.626 116.776 492.54 125.919 461.324C135.062 430.109 152.347 401.888 176.001 379.56L224.283 371.894L282.961 315.361H377.585L410.03 346.357C473.817 398.64 488.96 375.928 560.887 474.349L509.387 610.025L538.173 810.135L538.191 846.349L553.184 863.011C558.585 869.013 562.509 876.193 564.644 883.979C566.78 891.766 567.067 899.943 565.484 907.86L563.512 917.717C571.132 920.983 577.859 926.028 583.126 932.43C588.394 938.831 592.05 946.403 593.787 954.509L599.053 979.08C603.558 985.024 633.295 1024.67 633.295 1035.51C633.295 1037.14 632.094 1038.71 629.516 1040.46C609.251 1054.18 497.241 1082.15 447.667 1062.32C394.86 1041.2 184.947 1072.88 182.832 1073.2L181.741 1073.37Z" fill="#3F3D56"/>
<path d="M122.121 597.341L219.699 578.241C255.786 632.13 275.16 779.483 275.16 779.483L383.043 1003.21C389.674 1007.23 395.12 1012.95 398.824 1019.77C402.528 1026.58 404.36 1034.26 404.132 1042.01C403.903 1049.77 401.624 1057.33 397.525 1063.91C393.427 1070.5 387.655 1075.88 380.799 1079.52C373.942 1083.15 366.246 1084.9 358.493 1084.59C350.74 1084.28 343.209 1081.92 336.665 1077.75C330.121 1073.58 324.799 1067.75 321.24 1060.86C317.682 1053.96 316.014 1046.25 316.407 1038.5L175.699 773.428L122.121 597.341Z" fill="#A0616A"/>
<path d="M121.574 620.491L118.8 475.47L164.72 414.04C173.779 402.014 186.021 392.76 200.063 387.325C214.106 381.891 229.388 380.492 244.184 383.286C264.215 387.21 282.009 398.592 293.968 415.133C305.927 431.673 311.158 452.138 308.605 472.388C300.811 533.795 283.115 610.643 243.082 628.029L242.676 628.206L284.167 773.305L130.298 794.798L121.574 620.491Z" fill="#3F3D56"/>
<path d="M701.107 607.677C701.107 607.677 584.005 516.15 520.494 503.003L464.28 585.014L616.307 678.175L912.294 763.752C917.477 769.508 924.091 773.79 931.465 776.164C938.838 778.538 946.708 778.918 954.276 777.267C961.844 775.616 968.84 771.992 974.555 766.763C980.27 761.534 984.499 754.886 986.813 747.494C989.128 740.103 989.445 732.23 987.733 724.676C986.021 717.122 982.34 710.155 977.065 704.483C971.79 698.811 965.108 694.636 957.698 692.381C950.287 690.127 942.412 689.873 934.871 691.645L701.107 607.677Z" fill="#A0616A"/>
<path d="M495.084 626.069L373.047 547.663L347.564 475.326C342.613 461.106 341.738 445.786 345.038 431.095C348.338 416.405 355.681 402.93 366.237 392.194C380.645 377.736 400.006 369.289 420.404 368.559C440.803 367.83 460.717 374.873 476.121 388.264C522.805 428.915 582.967 442.54 575.132 485.475L597.608 488.757L712.543 576.04L644.765 715.832L495.084 626.069Z" fill="#3F3D56"/>
<path d="M206.297 102.457C219.474 82.071 244.203 68.4846 268.176 72.3023C270.407 57.0041 276.793 42.6113 286.639 30.691C296.484 18.7706 309.411 9.77952 324.013 4.69688C338.614 -0.385753 354.33 -1.36521 369.45 1.86516C384.57 5.09553 398.513 12.412 409.763 23.0177C413.462 20.4132 417.771 18.8079 422.273 18.3574C426.775 17.9069 431.317 18.6264 435.459 20.4461C443.71 24.1975 450.888 29.9588 456.336 37.2025C470.092 54.3561 478.939 74.9186 481.935 96.701C484.931 118.484 481.965 140.671 473.351 160.901C476.281 150.251 465.607 140.231 454.822 137.841C444.038 135.451 432.725 137.712 421.789 136.156C407.772 134.162 395.171 126.031 381.132 124.201C369.227 123.427 357.285 124.961 345.962 128.72C334.642 132.478 322.717 134.08 310.806 133.441C298.99 132.038 283.77 176.815 283.974 208.352C284.013 214.329 282.782 222.002 276.94 223.27C269.747 224.832 265.579 214.905 258.732 212.2C255.577 211.295 252.193 211.651 249.295 213.192C246.397 214.733 244.21 217.339 243.196 220.461C242.333 223.634 242.24 226.968 242.926 230.185C243.612 233.401 245.056 236.407 247.138 238.953C251.347 243.999 256.343 248.333 261.934 251.787L259.114 254.132C254.423 260.328 244.694 260.596 237.933 256.763C231.468 252.385 226.233 246.424 222.726 239.448C210.218 218.646 199.246 196.481 194.832 172.613C190.418 148.744 193.12 122.842 206.297 102.457Z" fill="#2F2E41"/>
<path d="M1013.31 678.697C1012.97 678.697 1012.63 678.69 1012.28 678.677C1008.26 678.531 1004.33 677.416 1000.83 675.426C997.335 673.436 994.369 670.631 992.187 667.249C975.848 642.829 955.796 621.11 932.756 602.875C918.809 591.728 904.234 581.363 890.14 571.338C853.779 545.486 819.536 521.137 800.528 487.493C759.084 414.131 807.89 311.948 877.614 266.122C955.819 214.727 1058.69 206.665 1158.2 205.608C1168.54 205.499 1178.89 205.445 1189.24 205.445C1368.54 205.514 1547.46 221.873 1723.8 254.321C1782.44 265.138 1843.82 278.39 1893.14 310.55C1942.17 342.52 1971.97 392.864 1969.06 438.812C1964.82 505.889 1893.71 556.01 1828.96 569.114C1767.24 581.594 1703.12 573.16 1635.24 564.228C1620.26 562.258 1604.76 560.219 1589.44 558.448C1422.92 539.202 1110.11 598.523 1096.87 601.058L1083.74 603.572L1032.8 669.126C1030.51 672.115 1027.55 674.533 1024.17 676.193C1020.79 677.853 1017.08 678.71 1013.31 678.697Z" fill="#1ce14e"/>
<path d="M1754.84 351.472H1051.02C1046.96 351.472 1043.06 349.859 1040.19 346.987C1037.32 344.115 1035.71 340.221 1035.71 336.159C1035.71 332.098 1037.32 328.203 1040.19 325.332C1043.06 322.46 1046.96 320.847 1051.02 320.847H1754.84C1758.9 320.847 1762.79 322.46 1765.67 325.332C1768.54 328.203 1770.15 332.098 1770.15 336.159C1770.15 340.221 1768.54 344.115 1765.67 346.987C1762.79 349.859 1758.9 351.472 1754.84 351.472Z" fill="white"/>
<path d="M1754.84 445.463H1051.02C1049.01 445.465 1047.02 445.071 1045.16 444.304C1043.3 443.536 1041.61 442.41 1040.19 440.989C1038.76 439.569 1037.63 437.882 1036.86 436.025C1036.09 434.168 1035.69 432.177 1035.69 430.166C1035.69 428.156 1036.08 426.164 1036.85 424.305C1037.62 422.447 1038.74 420.757 1040.16 419.334C1041.58 417.911 1043.27 416.781 1045.13 416.01C1046.99 415.238 1048.98 414.84 1050.99 414.838H1754.84C1758.9 414.838 1762.79 416.451 1765.67 419.323C1768.54 422.194 1770.15 426.089 1770.15 430.15C1770.15 434.212 1768.54 438.106 1765.67 440.978C1762.79 443.85 1758.9 445.463 1754.84 445.463Z" fill="white"/>
<path d="M1133.04 539.452H1051.02C1046.96 539.452 1043.06 537.838 1040.19 534.966C1037.32 532.095 1035.71 528.2 1035.71 524.139C1035.71 520.078 1037.32 516.183 1040.19 513.311C1043.06 510.44 1046.96 508.826 1051.02 508.826H1133.04C1137.1 508.826 1141 510.44 1143.87 513.311C1146.74 516.183 1148.35 520.078 1148.35 524.139C1148.35 528.2 1146.74 532.095 1143.87 534.966C1141 537.838 1137.1 539.452 1133.04 539.452Z" fill="white"/>
<path d="M1894.95 1182.85L1854.37 1130.63L1843.91 1128.63C1833.37 1126.61 1584.19 1079.36 1451.56 1094.69C1439.35 1096.1 1427.01 1097.72 1415.07 1099.29C1361 1106.41 1309.93 1113.12 1260.77 1103.18C1209.19 1092.75 1152.55 1052.82 1149.17 999.393C1146.85 962.793 1170.59 922.692 1209.65 897.227C1248.93 871.61 1297.82 861.054 1344.53 852.438C1484.99 826.592 1627.51 813.561 1770.33 813.506C1778.58 813.506 1786.82 813.55 1795.06 813.636C1874.32 814.478 1956.26 820.899 2018.55 861.838C2074.09 898.34 2112.97 979.733 2079.96 1038.17C2064.82 1064.97 2037.54 1084.36 2008.58 1104.95C1997.35 1112.94 1985.74 1121.2 1974.63 1130.08C1956.28 1144.6 1940.31 1161.9 1927.29 1181.35C1925.55 1184.05 1923.19 1186.28 1920.41 1187.87C1917.62 1189.45 1914.49 1190.34 1911.29 1190.45C1911.01 1190.47 1910.74 1190.47 1910.47 1190.47C1907.47 1190.48 1904.51 1189.8 1901.81 1188.48C1899.12 1187.15 1896.77 1185.23 1894.95 1182.85Z" fill="#F2F2F2"/>
<path d="M1319.81 929.823H1880.43C1883.66 929.817 1886.76 928.529 1889.04 926.242C1891.32 923.955 1892.6 920.856 1892.6 917.626C1892.6 914.395 1891.32 911.296 1889.04 909.009C1886.76 906.723 1883.66 905.435 1880.43 905.429H1319.81C1316.58 905.435 1313.48 906.723 1311.2 909.009C1308.92 911.296 1307.64 914.395 1307.64 917.626C1307.64 920.856 1308.92 923.955 1311.2 926.242C1313.48 928.529 1316.58 929.817 1319.81 929.823Z" fill="white"/>
<path d="M1319.81 1004.69H1880.43C1882.03 1004.69 1883.62 1004.38 1885.11 1003.77C1886.59 1003.16 1887.94 1002.27 1889.07 1001.13C1890.21 1000 1891.11 998.658 1891.73 997.177C1892.34 995.697 1892.66 994.109 1892.66 992.506C1892.66 990.903 1892.35 989.315 1891.74 987.833C1891.12 986.351 1890.22 985.005 1889.09 983.871C1887.96 982.736 1886.61 981.837 1885.13 981.224C1883.65 980.61 1882.06 980.295 1880.46 980.296H1319.81C1316.58 980.302 1313.48 981.59 1311.2 983.877C1308.92 986.164 1307.64 989.263 1307.64 992.493C1307.64 995.724 1308.92 998.823 1311.2 1001.11C1313.48 1003.4 1316.58 1004.68 1319.81 1004.69Z" fill="white"/>
<path d="M1815.1 1079.56H1880.43C1883.67 1079.56 1886.77 1078.27 1889.06 1075.98C1891.34 1073.7 1892.63 1070.59 1892.63 1067.36C1892.63 1064.12 1891.34 1061.02 1889.06 1058.73C1886.77 1056.45 1883.67 1055.16 1880.43 1055.16H1815.1C1811.86 1055.16 1808.76 1056.45 1806.47 1058.73C1804.19 1061.02 1802.9 1064.12 1802.9 1067.36C1802.9 1070.59 1804.19 1073.7 1806.47 1075.98C1808.76 1078.27 1811.86 1079.56 1815.1 1079.56Z" fill="white"/>
<path d="M1022 785.452C1063.11 785.452 1096.44 752.128 1096.44 711.02C1096.44 669.912 1063.11 636.587 1022 636.587C980.892 636.587 947.565 669.912 947.565 711.02C947.565 752.128 980.892 785.452 1022 785.452Z" fill="white"/>
<path d="M1022 786.361C1007.1 786.361 992.533 781.942 980.143 773.664C967.752 765.385 958.095 753.619 952.392 739.852C946.689 726.085 945.197 710.937 948.104 696.322C951.011 681.707 958.187 668.283 968.725 657.746C979.262 647.209 992.687 640.034 1007.3 637.127C1021.92 634.219 1037.07 635.711 1050.84 641.414C1064.6 647.116 1076.37 656.773 1084.65 669.162C1092.93 681.552 1097.35 696.118 1097.35 711.019C1097.33 730.994 1089.38 750.145 1075.25 764.269C1061.13 778.393 1041.98 786.338 1022 786.361Z" fill="#3F3D56"/>
<path d="M1016.43 740.767C1016.27 740.767 1016.11 740.762 1015.95 740.754C1014.55 740.686 1013.18 740.316 1011.93 739.669C1010.69 739.022 1009.6 738.114 1008.74 737.005L996.298 721.014C995.512 720.004 994.933 718.85 994.594 717.617C994.254 716.383 994.161 715.096 994.32 713.826C994.478 712.557 994.885 711.332 995.517 710.22C996.15 709.108 996.995 708.132 998.004 707.346L998.452 706.998C999.462 706.212 1000.62 705.633 1001.85 705.293C1003.08 704.954 1004.37 704.86 1005.64 705.019C1006.91 705.178 1008.14 705.585 1009.25 706.218C1010.36 706.85 1011.34 707.696 1012.12 708.706C1012.75 709.513 1013.55 710.174 1014.45 710.645C1015.36 711.117 1016.36 711.386 1017.38 711.436C1018.4 711.486 1019.42 711.314 1020.37 710.934C1021.32 710.553 1022.18 709.972 1022.88 709.23L1048.14 682.566C1049.92 680.694 1052.36 679.603 1054.95 679.533C1057.53 679.463 1060.03 680.419 1061.91 682.192L1062.32 682.587C1063.25 683.467 1064 684.52 1064.52 685.688C1065.04 686.856 1065.33 688.116 1065.36 689.394C1065.39 690.673 1065.18 691.945 1064.72 693.14C1064.26 694.334 1063.57 695.426 1062.69 696.355L1023.5 737.725C1022.59 738.686 1021.49 739.451 1020.28 739.974C1019.06 740.498 1017.75 740.767 1016.43 740.767Z" fill="white"/>
<path d="M1914.19 1291.5C1955.3 1291.5 1988.63 1258.17 1988.63 1217.06C1988.63 1175.96 1955.3 1142.63 1914.19 1142.63C1873.08 1142.63 1839.75 1175.96 1839.75 1217.06C1839.75 1258.17 1873.08 1291.5 1914.19 1291.5Z" fill="white"/>
<path d="M1914.98 1294.69C1900.08 1294.69 1885.51 1290.27 1873.12 1281.99C1860.73 1273.72 1851.07 1261.95 1845.37 1248.18C1839.67 1234.42 1838.18 1219.27 1841.08 1204.65C1843.99 1190.04 1851.17 1176.61 1861.7 1166.08C1872.24 1155.54 1885.67 1148.36 1900.28 1145.46C1914.9 1142.55 1930.05 1144.04 1943.81 1149.74C1957.58 1155.45 1969.35 1165.1 1977.63 1177.49C1985.91 1189.88 1990.33 1204.45 1990.33 1219.35C1990.3 1239.32 1982.36 1258.47 1968.23 1272.6C1954.11 1286.72 1934.96 1294.67 1914.98 1294.69Z" fill="#E6E6E6"/>
<path d="M1908.62 1246.81C1908.46 1246.81 1908.3 1246.81 1908.14 1246.8C1906.74 1246.73 1905.37 1246.36 1904.12 1245.71C1902.88 1245.07 1901.79 1244.16 1900.93 1243.05L1888.49 1227.06C1887.7 1226.05 1887.12 1224.89 1886.78 1223.66C1886.44 1222.43 1886.35 1221.14 1886.51 1219.87C1886.67 1218.6 1887.07 1217.38 1887.71 1216.26C1888.34 1215.15 1889.18 1214.18 1890.19 1213.39L1890.64 1213.04C1891.65 1212.26 1892.8 1211.68 1894.04 1211.34C1895.27 1211 1896.56 1210.9 1897.83 1211.06C1899.1 1211.22 1900.33 1211.63 1901.44 1212.26C1902.55 1212.89 1903.53 1213.74 1904.31 1214.75C1904.94 1215.56 1905.73 1216.22 1906.64 1216.69C1907.55 1217.16 1908.55 1217.43 1909.57 1217.48C1910.59 1217.53 1911.61 1217.36 1912.56 1216.98C1913.51 1216.6 1914.36 1216.02 1915.07 1215.27L1940.33 1188.61C1942.1 1186.74 1944.55 1185.65 1947.13 1185.58C1949.71 1185.51 1952.22 1186.46 1954.1 1188.24L1954.51 1188.63C1955.44 1189.51 1956.18 1190.56 1956.71 1191.73C1957.23 1192.9 1957.51 1194.16 1957.55 1195.44C1957.58 1196.72 1957.36 1197.99 1956.91 1199.18C1956.45 1200.38 1955.76 1201.47 1954.88 1202.4L1915.69 1243.77C1914.78 1244.73 1913.68 1245.5 1912.46 1246.02C1911.25 1246.54 1909.94 1246.81 1908.62 1246.81Z" fill="white"/>
</svg>
